# xmcd
# Track frame offsets:
# 150
# 19403
# 39272
# 64957
# 83955
# 102128
# 119640
# 134511
# 155246
# 173493
# 191255
# 213542
#
# Disc length: 3077 seconds
# Revision: 0
# Processed by: cddbd v1.5.1PL2 Copyright (c) Steve Scherf et al.
# Submitted via: VisiTrax 2.10.0.248 - For more info visit www.synapsa.com
#
DISCID=a90c030c
DTITLE=Gregg Martinez - Big Bad Daddy
DYEAR=1900
DGENRE=Blues
TTITLE0=Gregg Martinez - Mark My Words
TTITLE1=Gregg Martinez - Big Bad Daddy
TTITLE2=Gregg Martinez - Sing Me Some Blues
TTITLE3=Gregg Martinez - I Don't Deserve You
TTITLE4=Gregg Martinez - Back to the Bayou
TTITLE5=Gregg Martinez - Put Your Rock Down
TTITLE6=Gregg Martinez - GG Shinn - Everyday Will Be Like A Holiday
TTITLE7=Gregg Martinez - Might Mighty
TTITLE8=Gregg Martinez - Katrina
TTITLE9=Gregg Martinez - No Woman So Fine
TTITLE10=Gregg Martinez - Most of All
TTITLE11=Gregg Martinez - It's All Good
EXTD=
EXTT0=
EXTT1=
EXTT2=
EXTT3=
EXTT4=
EXTT5=
EXTT6=
EXTT7=
EXTT8=
EXTT9=
EXTT10=
EXTT11=
PLAYORDER=
